<?xml version="1.0" encoding="us-ascii" standalone="no"?><svg xmlns="http://www.w3.org/2000/svg" xmlns:xlink="http://www.w3.org/1999/xlink" contentStyleType="text/css" height="1295px" preserveAspectRatio="none" style="width:884px;height:1295px;background:#FFFFFF;" version="1.1" viewBox="0 0 884 1295" width="884px" zoomAndPan="magnify"><defs/><g><rect fill="#F1F1F1" height="37.6094" rx="12.5" ry="12.5" style="stroke:#181818;stroke-width:1.5;" width="220" x="10" y="627.8906"/><text fill="#000000" font-family="sans-serif" font-size="14" lengthAdjust="spacing" textLength="200" x="20" y="652.4238">Hospital Discharge Report body</text><rect fill="#F1F1F1" height="37.6094" rx="12.5" ry="12.5" style="stroke:#181818;stroke-width:1.5;" width="139" x="280" y="50.0234"/><text fill="#000000" font-family="sans-serif" font-size="14" lengthAdjust="spacing" textLength="119" x="290" y="74.5566">Advance directives</text><text fill="#000000" font-family="sans-serif" font-size="14" lengthAdjust="spacing" textLength="59" x="472" y="25.5332">Living will</text><path d="M419,68.8281 L429,68.8281 C444,68.8281 444,19.8047 459,19.8047 L469,19.8047 " fill="none" style="stroke:#181818;stroke-width:1.0;"/><text fill="#000000" font-family="sans-serif" font-size="14" lengthAdjust="spacing" textLength="88" x="472" y="45.1426">Date and time</text><path d="M419,68.8281 L429,68.8281 C444,68.8281 444,39.4141 459,39.4141 L469,39.4141 " fill="none" style="stroke:#181818;stroke-width:1.0;"/><text fill="#000000" font-family="sans-serif" font-size="14" lengthAdjust="spacing" textLength="32" x="472" y="64.752">Type</text><path d="M419,68.8281 L429,68.8281 C444,68.8281 444,59.0234 459,59.0234 L469,59.0234 " fill="none" style="stroke:#181818;stroke-width:1.0;"/><text fill="#000000" font-family="sans-serif" font-size="14" lengthAdjust="spacing" textLength="60" x="472" y="84.3613">Comment</text><path d="M419,68.8281 L429,68.8281 C444,68.8281 444,78.6328 459,78.6328 L469,78.6328 " fill="none" style="stroke:#181818;stroke-width:1.0;"/><text fill="#000000" font-family="sans-serif" font-size="14" lengthAdjust="spacing" textLength="117" x="472" y="103.9707">Related conditions</text><path d="M419,68.8281 L429,68.8281 C444,68.8281 444,98.2422 459,98.2422 L469,98.2422 " fill="none" style="stroke:#181818;stroke-width:1.0;"/><text fill="#000000" font-family="sans-serif" font-size="14" lengthAdjust="spacing" textLength="125" x="472" y="123.5801">Living will document</text><path d="M419,68.8281 L429,68.8281 C444,68.8281 444,117.8516 459,117.8516 L469,117.8516 " fill="none" style="stroke:#181818;stroke-width:1.0;"/><path d="M230,646.6953 L240,646.6953 C255,646.6953 255,68.8281 270,68.8281 L280,68.8281 " fill="none" style="stroke:#181818;stroke-width:1.0;"/><rect fill="#F1F1F1" height="37.6094" rx="12.5" ry="12.5" style="stroke:#181818;stroke-width:1.5;" width="105" x="280" y="138.2656"/><text fill="#000000" font-family="sans-serif" font-size="14" lengthAdjust="spacing" textLength="85" x="290" y="162.7988">Alerts section</text><text fill="#000000" font-family="sans-serif" font-size="14" lengthAdjust="spacing" textLength="107" x="438" y="143.1895">Section narrative</text><path d="M385,157.0703 L395,157.0703 C410,157.0703 410,137.4609 425,137.4609 L435,137.4609 " fill="none" style="stroke:#181818;stroke-width:1.0;"/><text fill="#000000" font-family="sans-serif" font-size="14" lengthAdjust="spacing" textLength="145" x="438" y="162.7988">Allergy and Intolerance</text><path d="M385,157.0703 L395,157.0703 C410,157.0703 410,157.0703 425,157.0703 L435,157.0703 " fill="none" style="stroke:#181818;stroke-width:1.0;"/><text fill="#000000" font-family="sans-serif" font-size="14" lengthAdjust="spacing" textLength="87" x="438" y="182.4082">Medical alerts</text><path d="M385,157.0703 L395,157.0703 C410,157.0703 410,176.6797 425,176.6797 L435,176.6797 " fill="none" style="stroke:#181818;stroke-width:1.0;"/><path d="M230,646.6953 L240,646.6953 C255,646.6953 255,157.0703 270,157.0703 L280,157.0703 " fill="none" style="stroke:#181818;stroke-width:1.0;"/><rect fill="#F1F1F1" height="37.6094" rx="12.5" ry="12.5" style="stroke:#181818;stroke-width:1.5;" width="208" x="280" y="295.1406"/><text fill="#000000" font-family="sans-serif" font-size="14" lengthAdjust="spacing" textLength="188" x="290" y="319.6738">Encounter information section</text><text fill="#000000" font-family="sans-serif" font-size="14" lengthAdjust="spacing" textLength="107" x="541" y="202.0176">Section narrative</text><path d="M488,313.9453 L498,313.9453 C513,313.9453 513,196.2891 528,196.2891 L538,196.2891 " fill="none" style="stroke:#181818;stroke-width:1.0;"/><text fill="#000000" font-family="sans-serif" font-size="14" lengthAdjust="spacing" textLength="44" x="541" y="221.627">Priority</text><path d="M488,313.9453 L498,313.9453 C513,313.9453 513,215.8984 528,215.8984 L538,215.8984 " fill="none" style="stroke:#181818;stroke-width:1.0;"/><text fill="#000000" font-family="sans-serif" font-size="14" lengthAdjust="spacing" textLength="218" x="541" y="241.2363">Admitting facility (Service provider)</text><path d="M488,313.9453 L498,313.9453 C513,313.9453 513,235.5078 528,235.5078 L538,235.5078 " fill="none" style="stroke:#181818;stroke-width:1.0;"/><text fill="#000000" font-family="sans-serif" font-size="14" lengthAdjust="spacing" textLength="151" x="541" y="260.8457">Actual encounter period</text><path d="M488,313.9453 L498,313.9453 C513,313.9453 513,255.1172 528,255.1172 L538,255.1172 " fill="none" style="stroke:#181818;stroke-width:1.0;"/><text fill="#000000" font-family="sans-serif" font-size="14" lengthAdjust="spacing" textLength="138" x="541" y="319.6738">Admission information</text><text fill="#000000" font-family="sans-serif" font-size="14" lengthAdjust="spacing" textLength="52" x="732" y="280.4551">Admitter</text><path d="M679,313.9453 L689,313.9453 C704,313.9453 704,274.7266 719,274.7266 L729,274.7266 " fill="none" style="stroke:#181818;stroke-width:1.0;"/><text fill="#000000" font-family="sans-serif" font-size="14" lengthAdjust="spacing" textLength="84" x="732" y="300.0645">Admit Source</text><path d="M679,313.9453 L689,313.9453 C704,313.9453 704,294.3359 719,294.3359 L729,294.3359 " fill="none" style="stroke:#181818;stroke-width:1.0;"/><text fill="#000000" font-family="sans-serif" font-size="14" lengthAdjust="spacing" textLength="140" x="732" y="319.6738">Referring professional</text><path d="M679,313.9453 L689,313.9453 C704,313.9453 704,313.9453 719,313.9453 L729,313.9453 " fill="none" style="stroke:#181818;stroke-width:1.0;"/><text fill="#000000" font-family="sans-serif" font-size="14" lengthAdjust="spacing" textLength="117" x="732" y="339.2832">Admission Reason</text><path d="M679,313.9453 L689,313.9453 C704,313.9453 704,333.5547 719,333.5547 L729,333.5547 " fill="none" style="stroke:#181818;stroke-width:1.0;"/><text fill="#000000" font-family="sans-serif" font-size="14" lengthAdjust="spacing" textLength="140" x="732" y="358.8926">Admission legal status</text><path d="M679,313.9453 L689,313.9453 C704,313.9453 704,353.1641 719,353.1641 L729,353.1641 " fill="none" style="stroke:#181818;stroke-width:1.0;"/><path d="M488,313.9453 L498,313.9453 C513,313.9453 513,313.9453 528,313.9453 L538,313.9453 " fill="none" style="stroke:#181818;stroke-width:1.0;"/><text fill="#000000" font-family="sans-serif" font-size="14" lengthAdjust="spacing" textLength="138" x="541" y="388.3066">Discharge information</text><text fill="#000000" font-family="sans-serif" font-size="14" lengthAdjust="spacing" textLength="102" x="732" y="378.502">Destination type</text><path d="M679,382.5781 L689,382.5781 C704,382.5781 704,372.7734 719,372.7734 L729,372.7734 " fill="none" style="stroke:#181818;stroke-width:1.0;"/><text fill="#000000" font-family="sans-serif" font-size="14" lengthAdjust="spacing" textLength="124" x="732" y="398.1113">Destination location</text><path d="M679,382.5781 L689,382.5781 C704,382.5781 704,392.3828 719,392.3828 L729,392.3828 " fill="none" style="stroke:#181818;stroke-width:1.0;"/><path d="M488,313.9453 L498,313.9453 C513,313.9453 513,382.5781 528,382.5781 L538,382.5781 " fill="none" style="stroke:#181818;stroke-width:1.0;"/><text fill="#000000" font-family="sans-serif" font-size="14" lengthAdjust="spacing" textLength="54" x="541" y="427.5254">Location</text><text fill="#000000" font-family="sans-serif" font-size="14" lengthAdjust="spacing" textLength="41" x="648" y="417.7207">Period</text><path d="M595,421.7969 L605,421.7969 C620,421.7969 620,411.9922 635,411.9922 L645,411.9922 " fill="none" style="stroke:#181818;stroke-width:1.0;"/><text fill="#000000" font-family="sans-serif" font-size="14" lengthAdjust="spacing" textLength="109" x="648" y="437.3301">Organization part</text><path d="M595,421.7969 L605,421.7969 C620,421.7969 620,431.6016 635,431.6016 L645,431.6016 " fill="none" style="stroke:#181818;stroke-width:1.0;"/><path d="M488,313.9453 L498,313.9453 C513,313.9453 513,421.7969 528,421.7969 L538,421.7969 " fill="none" style="stroke:#181818;stroke-width:1.0;"/><path d="M230,646.6953 L240,646.6953 C255,646.6953 255,313.9453 270,313.9453 L280,313.9453 " fill="none" style="stroke:#181818;stroke-width:1.0;"/><rect fill="#F1F1F1" height="37.6094" rx="12.5" ry="12.5" style="stroke:#181818;stroke-width:1.5;" width="153" x="280" y="520.6484"/><text fill="#000000" font-family="sans-serif" font-size="14" lengthAdjust="spacing" textLength="133" x="290" y="545.1816">Admission evaluation</text><text fill="#000000" font-family="sans-serif" font-size="14" lengthAdjust="spacing" textLength="107" x="486" y="486.3535">Section narrative</text><path d="M433,539.4531 L443,539.4531 C458,539.4531 458,480.625 473,480.625 L483,480.625 " fill="none" style="stroke:#181818;stroke-width:1.0;"/><text fill="#000000" font-family="sans-serif" font-size="14" lengthAdjust="spacing" textLength="112" x="486" y="505.9629">Objective findings</text><text fill="#000000" font-family="sans-serif" font-size="14" lengthAdjust="spacing" textLength="88" x="651" y="456.9395">Date and time</text><path d="M598,500.2344 L608,500.2344 C623,500.2344 623,451.2109 638,451.2109 L648,451.2109 " fill="none" style="stroke:#181818;stroke-width:1.0;"/><text fill="#000000" font-family="sans-serif" font-size="14" lengthAdjust="spacing" textLength="63" x="651" y="476.5488">Performer</text><path d="M598,500.2344 L608,500.2344 C623,500.2344 623,470.8203 638,470.8203 L648,470.8203 " fill="none" style="stroke:#181818;stroke-width:1.0;"/><text fill="#000000" font-family="sans-serif" font-size="14" lengthAdjust="spacing" textLength="107" x="651" y="496.1582">Section narrative</text><path d="M598,500.2344 L608,500.2344 C623,500.2344 623,490.4297 638,490.4297 L648,490.4297 " fill="none" style="stroke:#181818;stroke-width:1.0;"/><text fill="#000000" font-family="sans-serif" font-size="14" lengthAdjust="spacing" textLength="181" x="651" y="515.7676">Anthropometric observations</text><path d="M598,500.2344 L608,500.2344 C623,500.2344 623,510.0391 638,510.0391 L648,510.0391 " fill="none" style="stroke:#181818;stroke-width:1.0;"/><text fill="#000000" font-family="sans-serif" font-size="14" lengthAdjust="spacing" textLength="64" x="651" y="535.377">Vital signs</text><path d="M598,500.2344 L608,500.2344 C623,500.2344 623,529.6484 638,529.6484 L648,529.6484 " fill="none" style="stroke:#181818;stroke-width:1.0;"/><text fill="#000000" font-family="sans-serif" font-size="14" lengthAdjust="spacing" textLength="131" x="651" y="554.9863">Physical examination</text><path d="M598,500.2344 L608,500.2344 C623,500.2344 623,549.2578 638,549.2578 L648,549.2578 " fill="none" style="stroke:#181818;stroke-width:1.0;"/><path d="M433,539.4531 L443,539.4531 C458,539.4531 458,500.2344 473,500.2344 L483,500.2344 " fill="none" style="stroke:#181818;stroke-width:1.0;"/><text fill="#000000" font-family="sans-serif" font-size="14" lengthAdjust="spacing" textLength="108" x="486" y="604.0098">Functional status</text><text fill="#000000" font-family="sans-serif" font-size="14" lengthAdjust="spacing" textLength="88" x="647" y="574.5957">Date and time</text><path d="M594,598.2813 L604,598.2813 C619,598.2813 619,568.8672 634,568.8672 L644,568.8672 " fill="none" style="stroke:#181818;stroke-width:1.0;"/><text fill="#000000" font-family="sans-serif" font-size="14" lengthAdjust="spacing" textLength="63" x="647" y="594.2051">Performer</text><path d="M594,598.2813 L604,598.2813 C619,598.2813 619,588.4766 634,588.4766 L644,588.4766 " fill="none" style="stroke:#181818;stroke-width:1.0;"/><text fill="#000000" font-family="sans-serif" font-size="14" lengthAdjust="spacing" textLength="107" x="647" y="613.8145">Section narrative</text><path d="M594,598.2813 L604,598.2813 C619,598.2813 619,608.0859 634,608.0859 L644,608.0859 " fill="none" style="stroke:#181818;stroke-width:1.0;"/><text fill="#000000" font-family="sans-serif" font-size="14" lengthAdjust="spacing" textLength="187" x="647" y="633.4238">Functional status assessment</text><path d="M594,598.2813 L604,598.2813 C619,598.2813 619,627.6953 634,627.6953 L644,627.6953 " fill="none" style="stroke:#181818;stroke-width:1.0;"/><path d="M433,539.4531 L443,539.4531 C458,539.4531 458,598.2813 473,598.2813 L483,598.2813 " fill="none" style="stroke:#181818;stroke-width:1.0;"/><path d="M230,646.6953 L240,646.6953 C255,646.6953 255,539.4531 270,539.4531 L280,539.4531 " fill="none" style="stroke:#181818;stroke-width:1.0;"/><rect fill="#F1F1F1" height="37.6094" rx="12.5" ry="12.5" style="stroke:#181818;stroke-width:1.5;" width="110" x="280" y="706.9375"/><text fill="#000000" font-family="sans-serif" font-size="14" lengthAdjust="spacing" textLength="90" x="290" y="731.4707">Patient history</text><text fill="#000000" font-family="sans-serif" font-size="14" lengthAdjust="spacing" textLength="107" x="443" y="653.0332">Section narrative</text><path d="M390,725.7422 L400,725.7422 C415,725.7422 415,647.3047 430,647.3047 L440,647.3047 " fill="none" style="stroke:#181818;stroke-width:1.0;"/><text fill="#000000" font-family="sans-serif" font-size="14" lengthAdjust="spacing" textLength="94" x="443" y="721.666">Medical history</text><text fill="#000000" font-family="sans-serif" font-size="14" lengthAdjust="spacing" textLength="107" x="590" y="672.6426">Section narrative</text><path d="M537,715.9375 L547,715.9375 C562,715.9375 562,666.9141 577,666.9141 L587,666.9141 " fill="none" style="stroke:#181818;stroke-width:1.0;"/><text fill="#000000" font-family="sans-serif" font-size="14" lengthAdjust="spacing" textLength="90" x="590" y="692.252">Past problems</text><path d="M537,715.9375 L547,715.9375 C562,715.9375 562,686.5234 577,686.5234 L587,686.5234 " fill="none" style="stroke:#181818;stroke-width:1.0;"/><text fill="#000000" font-family="sans-serif" font-size="14" lengthAdjust="spacing" textLength="134" x="590" y="711.8613">Devices and implants</text><path d="M537,715.9375 L547,715.9375 C562,715.9375 562,706.1328 577,706.1328 L587,706.1328 " fill="none" style="stroke:#181818;stroke-width:1.0;"/><text fill="#000000" font-family="sans-serif" font-size="14" lengthAdjust="spacing" textLength="135" x="590" y="731.4707">History of procedures</text><path d="M537,715.9375 L547,715.9375 C562,715.9375 562,725.7422 577,725.7422 L587,725.7422 " fill="none" style="stroke:#181818;stroke-width:1.0;"/><text fill="#000000" font-family="sans-serif" font-size="14" lengthAdjust="spacing" textLength="73" x="590" y="751.0801">Vaccination</text><path d="M537,715.9375 L547,715.9375 C562,715.9375 562,745.3516 577,745.3516 L587,745.3516 " fill="none" style="stroke:#181818;stroke-width:1.0;"/><text fill="#000000" font-family="sans-serif" font-size="14" lengthAdjust="spacing" textLength="144" x="590" y="770.6895">Epidemiological history</text><path d="M537,715.9375 L547,715.9375 C562,715.9375 562,764.9609 577,764.9609 L587,764.9609 " fill="none" style="stroke:#181818;stroke-width:1.0;"/><path d="M390,725.7422 L400,725.7422 C415,725.7422 415,715.9375 430,715.9375 L440,715.9375 " fill="none" style="stroke:#181818;stroke-width:1.0;"/><text fill="#000000" font-family="sans-serif" font-size="14" lengthAdjust="spacing" textLength="87" x="443" y="741.2754">Family history</text><path d="M390,725.7422 L400,725.7422 C415,725.7422 415,735.5469 430,735.5469 L440,735.5469 " fill="none" style="stroke:#181818;stroke-width:1.0;"/><text fill="#000000" font-family="sans-serif" font-size="14" lengthAdjust="spacing" textLength="183" x="443" y="790.2988">Social determinants of health</text><path d="M390,725.7422 L400,725.7422 C415,725.7422 415,784.5703 430,784.5703 L440,784.5703 " fill="none" style="stroke:#181818;stroke-width:1.0;"/><text fill="#000000" font-family="sans-serif" font-size="14" lengthAdjust="spacing" textLength="116" x="443" y="809.9082">Use of substances</text><path d="M390,725.7422 L400,725.7422 C415,725.7422 415,804.1797 430,804.1797 L440,804.1797 " fill="none" style="stroke:#181818;stroke-width:1.0;"/><path d="M230,646.6953 L240,646.6953 C255,646.6953 255,725.7422 270,725.7422 L280,725.7422 " fill="none" style="stroke:#181818;stroke-width:1.0;"/><rect fill="#F1F1F1" height="37.6094" rx="12.5" ry="12.5" style="stroke:#181818;stroke-width:1.5;" width="270" x="280" y="863.8125"/><text fill="#000000" font-family="sans-serif" font-size="14" lengthAdjust="spacing" textLength="250" x="290" y="888.3457">Course of hospitalisation (Hospital stay)</text><text fill="#000000" font-family="sans-serif" font-size="14" lengthAdjust="spacing" textLength="107" x="603" y="829.5176">Section narrative</text><path d="M550,882.6172 L560,882.6172 C575,882.6172 575,823.7891 590,823.7891 L600,823.7891 " fill="none" style="stroke:#181818;stroke-width:1.0;"/><text fill="#000000" font-family="sans-serif" font-size="14" lengthAdjust="spacing" textLength="127" x="603" y="849.127">Diagnostic summary</text><path d="M550,882.6172 L560,882.6172 C575,882.6172 575,843.3984 590,843.3984 L600,843.3984 " fill="none" style="stroke:#181818;stroke-width:1.0;"/><text fill="#000000" font-family="sans-serif" font-size="14" lengthAdjust="spacing" textLength="141" x="603" y="868.7363">Significant procedures</text><path d="M550,882.6172 L560,882.6172 C575,882.6172 575,863.0078 590,863.0078 L600,863.0078 " fill="none" style="stroke:#181818;stroke-width:1.0;"/><text fill="#000000" font-family="sans-serif" font-size="14" lengthAdjust="spacing" textLength="184" x="603" y="888.3457">Medical devices and implants</text><path d="M550,882.6172 L560,882.6172 C575,882.6172 575,882.6172 590,882.6172 L600,882.6172 " fill="none" style="stroke:#181818;stroke-width:1.0;"/><text fill="#000000" font-family="sans-serif" font-size="14" lengthAdjust="spacing" textLength="112" x="603" y="907.9551">Pharmacotherapy</text><path d="M550,882.6172 L560,882.6172 C575,882.6172 575,902.2266 590,902.2266 L600,902.2266 " fill="none" style="stroke:#181818;stroke-width:1.0;"/><text fill="#000000" font-family="sans-serif" font-size="14" lengthAdjust="spacing" textLength="197" x="603" y="927.5645">Significant Observation Results</text><path d="M550,882.6172 L560,882.6172 C575,882.6172 575,921.8359 590,921.8359 L600,921.8359 " fill="none" style="stroke:#181818;stroke-width:1.0;"/><text fill="#000000" font-family="sans-serif" font-size="14" lengthAdjust="spacing" textLength="61" x="603" y="947.1738">Synthesis</text><path d="M550,882.6172 L560,882.6172 C575,882.6172 575,941.4453 590,941.4453 L600,941.4453 " fill="none" style="stroke:#181818;stroke-width:1.0;"/><path d="M230,646.6953 L240,646.6953 C255,646.6953 255,882.6172 270,882.6172 L280,882.6172 " fill="none" style="stroke:#181818;stroke-width:1.0;"/><rect fill="#F1F1F1" height="37.6094" rx="12.5" ry="12.5" style="stroke:#181818;stroke-width:1.5;" width="129" x="280" y="1030.4922"/><text fill="#000000" font-family="sans-serif" font-size="14" lengthAdjust="spacing" textLength="109" x="290" y="1055.0254">Discharge details</text><text fill="#000000" font-family="sans-serif" font-size="14" lengthAdjust="spacing" textLength="107" x="462" y="996.1973">Section narrative</text><path d="M409,1049.2969 L419,1049.2969 C434,1049.2969 434,990.4688 449,990.4688 L459,990.4688 " fill="none" style="stroke:#181818;stroke-width:1.0;"/><text fill="#000000" font-family="sans-serif" font-size="14" lengthAdjust="spacing" textLength="112" x="462" y="1015.8066">Objective findings</text><text fill="#000000" font-family="sans-serif" font-size="14" lengthAdjust="spacing" textLength="88" x="627" y="966.7832">Date and time</text><path d="M574,1010.0781 L584,1010.0781 C599,1010.0781 599,961.0547 614,961.0547 L624,961.0547 " fill="none" style="stroke:#181818;stroke-width:1.0;"/><text fill="#000000" font-family="sans-serif" font-size="14" lengthAdjust="spacing" textLength="63" x="627" y="986.3926">Performer</text><path d="M574,1010.0781 L584,1010.0781 C599,1010.0781 599,980.6641 614,980.6641 L624,980.6641 " fill="none" style="stroke:#181818;stroke-width:1.0;"/><text fill="#000000" font-family="sans-serif" font-size="14" lengthAdjust="spacing" textLength="107" x="627" y="1006.002">Section narrative</text><path d="M574,1010.0781 L584,1010.0781 C599,1010.0781 599,1000.2734 614,1000.2734 L624,1000.2734 " fill="none" style="stroke:#181818;stroke-width:1.0;"/><text fill="#000000" font-family="sans-serif" font-size="14" lengthAdjust="spacing" textLength="181" x="627" y="1025.6113">Anthropometric observations</text><path d="M574,1010.0781 L584,1010.0781 C599,1010.0781 599,1019.8828 614,1019.8828 L624,1019.8828 " fill="none" style="stroke:#181818;stroke-width:1.0;"/><text fill="#000000" font-family="sans-serif" font-size="14" lengthAdjust="spacing" textLength="64" x="627" y="1045.2207">Vital signs</text><path d="M574,1010.0781 L584,1010.0781 C599,1010.0781 599,1039.4922 614,1039.4922 L624,1039.4922 " fill="none" style="stroke:#181818;stroke-width:1.0;"/><text fill="#000000" font-family="sans-serif" font-size="14" lengthAdjust="spacing" textLength="131" x="627" y="1064.8301">Physical examination</text><path d="M574,1010.0781 L584,1010.0781 C599,1010.0781 599,1059.1016 614,1059.1016 L624,1059.1016 " fill="none" style="stroke:#181818;stroke-width:1.0;"/><path d="M409,1049.2969 L419,1049.2969 C434,1049.2969 434,1010.0781 449,1010.0781 L459,1010.0781 " fill="none" style="stroke:#181818;stroke-width:1.0;"/><text fill="#000000" font-family="sans-serif" font-size="14" lengthAdjust="spacing" textLength="108" x="462" y="1113.8535">Functional status</text><text fill="#000000" font-family="sans-serif" font-size="14" lengthAdjust="spacing" textLength="88" x="623" y="1084.4395">Date and time</text><path d="M570,1108.125 L580,1108.125 C595,1108.125 595,1078.7109 610,1078.7109 L620,1078.7109 " fill="none" style="stroke:#181818;stroke-width:1.0;"/><text fill="#000000" font-family="sans-serif" font-size="14" lengthAdjust="spacing" textLength="63" x="623" y="1104.0488">Performer</text><path d="M570,1108.125 L580,1108.125 C595,1108.125 595,1098.3203 610,1098.3203 L620,1098.3203 " fill="none" style="stroke:#181818;stroke-width:1.0;"/><text fill="#000000" font-family="sans-serif" font-size="14" lengthAdjust="spacing" textLength="107" x="623" y="1123.6582">Section narrative</text><path d="M570,1108.125 L580,1108.125 C595,1108.125 595,1117.9297 610,1117.9297 L620,1117.9297 " fill="none" style="stroke:#181818;stroke-width:1.0;"/><text fill="#000000" font-family="sans-serif" font-size="14" lengthAdjust="spacing" textLength="187" x="623" y="1143.2676">Functional status assessment</text><path d="M570,1108.125 L580,1108.125 C595,1108.125 595,1137.5391 610,1137.5391 L620,1137.5391 " fill="none" style="stroke:#181818;stroke-width:1.0;"/><path d="M409,1049.2969 L419,1049.2969 C434,1049.2969 434,1108.125 449,1108.125 L459,1108.125 " fill="none" style="stroke:#181818;stroke-width:1.0;"/><path d="M230,646.6953 L240,646.6953 C255,646.6953 255,1049.2969 270,1049.2969 L280,1049.2969 " fill="none" style="stroke:#181818;stroke-width:1.0;"/><rect fill="#F1F1F1" height="37.6094" rx="12.5" ry="12.5" style="stroke:#181818;stroke-width:1.5;" width="149" x="280" y="1157.3438"/><text fill="#000000" font-family="sans-serif" font-size="14" lengthAdjust="spacing" textLength="129" x="290" y="1181.877">Medication summary</text><path d="M230,646.6953 L240,646.6953 C255,646.6953 255,1176.1484 270,1176.1484 L280,1176.1484 " fill="none" style="stroke:#181818;stroke-width:1.0;"/><rect fill="#F1F1F1" height="37.6094" rx="12.5" ry="12.5" style="stroke:#181818;stroke-width:1.5;" width="82" x="280" y="1225.3672"/><text fill="#000000" font-family="sans-serif" font-size="14" lengthAdjust="spacing" textLength="62" x="290" y="1249.9004">Care plan</text><text fill="#000000" font-family="sans-serif" font-size="14" lengthAdjust="spacing" textLength="27" x="415" y="1220.4863">Title</text><path d="M362,1244.1719 L372,1244.1719 C387,1244.1719 387,1214.7578 402,1214.7578 L412,1214.7578 " fill="none" style="stroke:#181818;stroke-width:1.0;"/><text fill="#000000" font-family="sans-serif" font-size="14" lengthAdjust="spacing" textLength="67" x="415" y="1240.0957">Addresses</text><path d="M362,1244.1719 L372,1244.1719 C387,1244.1719 387,1234.3672 402,1234.3672 L412,1234.3672 " fill="none" style="stroke:#181818;stroke-width:1.0;"/><text fill="#000000" font-family="sans-serif" font-size="14" lengthAdjust="spacing" textLength="135" x="415" y="1259.7051">Care plan description</text><path d="M362,1244.1719 L372,1244.1719 C387,1244.1719 387,1253.9766 402,1253.9766 L412,1253.9766 " fill="none" style="stroke:#181818;stroke-width:1.0;"/><text fill="#000000" font-family="sans-serif" font-size="14" lengthAdjust="spacing" textLength="152" x="415" y="1279.3145">Other recommendations</text><path d="M362,1244.1719 L372,1244.1719 C387,1244.1719 387,1273.5859 402,1273.5859 L412,1273.5859 " fill="none" style="stroke:#181818;stroke-width:1.0;"/><path d="M230,646.6953 L240,646.6953 C255,646.6953 255,1244.1719 270,1244.1719 L280,1244.1719 " fill="none" style="stroke:#181818;stroke-width:1.0;"/><!--SRC=[xLR1Sjis4BtpA_OeUSOPntKw7PtYIdRJZ3JMMB8FlMHM04Hj2W8S06JBVdqN04afSkAqqsjln7Av-_RjMopV-u0kL6HaXNNXVoTJeyCAWgqRfs4JN2D2uzH2xSbG86ikYmk03zRN5533Whmue2iLFAhQkW0xAxlYuW9kPOj6A93ab0ZKAi_MYq-mf9PC2N-GrjcmmA00ZOH0bSgcRLVtJtDRLSg4V7XKcdqb26jaWl8o94WhcluBkDNA1Gy-vhSc-sxo0GmwXn5MDjzgzYsxXEDN4ooV8lhySgKa2QuLKxmO-Su8svYW793PMrTXYlbF4gqTMKUXwzFAYaA8uFSeIBCT9XlbMcBYQcTRaifDUrTk0sDGO-PQSIXvZEDzJ7U29xuQSoXtUeIDRLmkB_6wLyv559nphr8Wr2V-EVIZGlz5r6pMgcHSBAFGzFquQk8bceNoN6_cA_HjFZDhA_38u_Ba5FaRg-R3WolHq5_vCzPjABBo1cYgHTtWTtloiFkS9GgiSSay-07LkJGpW5ZJoETNOqQ2J3WuMzjA1KS2xCvpNt5KBNiyfm7oL8wMzQ7pIMdgJwnwEZB4-yQaD5ym_HyHleW9w3rtVnYVDJlp8np81-kwLoaSHkJ4zvNCQ_GXQcsdLJLMegBgVIg6gbgZ2SEh3paes7tyI2Z9zz588WfnmXHRxcgUcegijkKv9AwPUTNTMKbM4Fj9nKCIMUV4CTL1eGw7xFBaLJJvPiTCyRsGBe4vpr2s7_hRa7oMucIy7jczcxxAt8AmD9RLBpXyLU68YdL1Uwx0XBEgZspBRt0MbOGyTyA60rzazLT2FXpro8Fj6prykUbOkCfJAl4uoSmEalR_pz6_dwFShRmXnWx371tVyTooVkLHqCCkaf8xxOTcZuxS0oySrSTg7c9xWVThsfAoP-KzFmuBlLX7KJojbj0gb-x4js-khwvltlmmsHuQk5SxUFiEhgzcDrUpgtSmlzj2V3qj9h-ib-qr-BGdU8bxPd_Nn0JJuYEs28-yXPYh6SJJPBkQmkPkCF9-RCbPanZu-BpAJlpJ43Qr3SdvnvlBd-CUucPo2S-hWdyma5MOLclKpWoUjlUNFnLBD6M39ISIlfZ7tUUw6Sn_-ni0]--></g></svg>