<?xml version="1.0" encoding="us-ascii" standalone="no"?><svg xmlns="http://www.w3.org/2000/svg" xmlns:xlink="http://www.w3.org/1999/xlink" contentStyleType="text/css" height="737px" preserveAspectRatio="none" style="width:640px;height:737px;background:#FFFFFF;" version="1.1" viewBox="0 0 640 737" width="640px" zoomAndPan="magnify"><defs/><g><rect fill="#F1F1F1" height="37.6094" rx="12.5" ry="12.5" style="stroke:#181818;stroke-width:1.5;" width="235" x="10" y="349.0938"/><text fill="#000000" font-family="sans-serif" font-size="14" lengthAdjust="spacing" textLength="215" x="20" y="373.627">Hospital Discharge Report Header</text><rect fill="#F1F1F1" height="37.6094" rx="12.5" ry="12.5" style="stroke:#181818;stroke-width:1.5;" width="67" x="295" y="20"/><text fill="#000000" font-family="sans-serif" font-size="14" lengthAdjust="spacing" textLength="47" x="305" y="44.5332">Subject</text><path d="M245,367.8984 L255,367.8984 C270,367.8984 270,38.8047 285,38.8047 L295,38.8047 " fill="none" style="stroke:#181818;stroke-width:1.0;"/><rect fill="#F1F1F1" height="37.6094" rx="12.5" ry="12.5" style="stroke:#181818;stroke-width:1.5;" width="117" x="295" y="77.6094"/><text fill="#000000" font-family="sans-serif" font-size="14" lengthAdjust="spacing" textLength="97" x="305" y="102.1426">Related person</text><path d="M245,367.8984 L255,367.8984 C270,367.8984 270,96.4141 285,96.4141 L295,96.4141 " fill="none" style="stroke:#181818;stroke-width:1.0;"/><rect fill="#F1F1F1" height="37.6094" rx="12.5" ry="12.5" style="stroke:#181818;stroke-width:1.5;" width="206" x="295" y="135.2188"/><text fill="#000000" font-family="sans-serif" font-size="14" lengthAdjust="spacing" textLength="186" x="305" y="159.752">Preferred Health Professional</text><path d="M245,367.8984 L255,367.8984 C270,367.8984 270,154.0234 285,154.0234 L295,154.0234 " fill="none" style="stroke:#181818;stroke-width:1.0;"/><rect fill="#F1F1F1" height="37.6094" rx="12.5" ry="12.5" style="stroke:#181818;stroke-width:1.5;" width="286" x="295" y="192.8281"/><text fill="#000000" font-family="sans-serif" font-size="14" lengthAdjust="spacing" textLength="266" x="305" y="217.3613">Health insurance and payment information</text><path d="M245,367.8984 L255,367.8984 C270,367.8984 270,211.6328 285,211.6328 L295,211.6328 " fill="none" style="stroke:#181818;stroke-width:1.0;"/><rect fill="#F1F1F1" height="37.6094" rx="12.5" ry="12.5" style="stroke:#181818;stroke-width:1.5;" width="133" x="295" y="250.4375"/><text fill="#000000" font-family="sans-serif" font-size="14" lengthAdjust="spacing" textLength="113" x="305" y="274.9707">Intended recipient</text><path d="M245,367.8984 L255,367.8984 C270,367.8984 270,269.2422 285,269.2422 L295,269.2422 " fill="none" style="stroke:#181818;stroke-width:1.0;"/><rect fill="#F1F1F1" height="37.6094" rx="12.5" ry="12.5" style="stroke:#181818;stroke-width:1.5;" width="88" x="295" y="308.0469"/><text fill="#000000" font-family="sans-serif" font-size="14" lengthAdjust="spacing" textLength="68" x="305" y="332.5801">Authorship</text><text fill="#000000" font-family="sans-serif" font-size="14" lengthAdjust="spacing" textLength="42" x="436" y="322.7754">Author</text><path d="M383,326.8516 L393,326.8516 C408,326.8516 408,317.0469 423,317.0469 L433,317.0469 " fill="none" style="stroke:#181818;stroke-width:1.0;"/><text fill="#000000" font-family="sans-serif" font-size="14" lengthAdjust="spacing" textLength="61" x="436" y="342.3848">DateTime</text><path d="M383,326.8516 L393,326.8516 C408,326.8516 408,336.6563 423,336.6563 L433,336.6563 " fill="none" style="stroke:#181818;stroke-width:1.0;"/><path d="M245,367.8984 L255,367.8984 C270,367.8984 270,326.8516 285,326.8516 L295,326.8516 " fill="none" style="stroke:#181818;stroke-width:1.0;"/><rect fill="#F1F1F1" height="37.6094" rx="12.5" ry="12.5" style="stroke:#181818;stroke-width:1.5;" width="87" x="295" y="365.6563"/><text fill="#000000" font-family="sans-serif" font-size="14" lengthAdjust="spacing" textLength="67" x="305" y="390.1895">Attestation</text><text fill="#000000" font-family="sans-serif" font-size="14" lengthAdjust="spacing" textLength="49" x="435" y="380.3848">Attester</text><path d="M382,384.4609 L392,384.4609 C407,384.4609 407,374.6563 422,374.6563 L432,374.6563 " fill="none" style="stroke:#181818;stroke-width:1.0;"/><text fill="#000000" font-family="sans-serif" font-size="14" lengthAdjust="spacing" textLength="61" x="435" y="399.9941">DateTime</text><path d="M382,384.4609 L392,384.4609 C407,384.4609 407,394.2656 422,394.2656 L432,394.2656 " fill="none" style="stroke:#181818;stroke-width:1.0;"/><path d="M245,367.8984 L255,367.8984 C270,367.8984 270,384.4609 285,384.4609 L295,384.4609 " fill="none" style="stroke:#181818;stroke-width:1.0;"/><rect fill="#F1F1F1" height="37.6094" rx="12.5" ry="12.5" style="stroke:#181818;stroke-width:1.5;" width="148" x="295" y="423.2656"/><text fill="#000000" font-family="sans-serif" font-size="14" lengthAdjust="spacing" textLength="128" x="305" y="447.7988">Legal authentication</text><text fill="#000000" font-family="sans-serif" font-size="14" lengthAdjust="spacing" textLength="122" x="496" y="437.9941">Legal authenticator</text><path d="M443,442.0703 L453,442.0703 C468,442.0703 468,432.2656 483,432.2656 L493,432.2656 " fill="none" style="stroke:#181818;stroke-width:1.0;"/><text fill="#000000" font-family="sans-serif" font-size="14" lengthAdjust="spacing" textLength="61" x="496" y="457.6035">DateTime</text><path d="M443,442.0703 L453,442.0703 C468,442.0703 468,451.875 483,451.875 L493,451.875 " fill="none" style="stroke:#181818;stroke-width:1.0;"/><path d="M245,367.8984 L255,367.8984 C270,367.8984 270,442.0703 285,442.0703 L295,442.0703 " fill="none" style="stroke:#181818;stroke-width:1.0;"/><rect fill="#F1F1F1" height="37.6094" rx="12.5" ry="12.5" style="stroke:#181818;stroke-width:1.5;" width="147" x="295" y="579.5313"/><text fill="#000000" font-family="sans-serif" font-size="14" lengthAdjust="spacing" textLength="127" x="305" y="604.0645">Document metadata</text><text fill="#000000" font-family="sans-serif" font-size="14" lengthAdjust="spacing" textLength="81" x="495" y="486.4082">Document ID</text><path d="M442,598.3359 L452,598.3359 C467,598.3359 467,480.6797 482,480.6797 L492,480.6797 " fill="none" style="stroke:#181818;stroke-width:1.0;"/><text fill="#000000" font-family="sans-serif" font-size="14" lengthAdjust="spacing" textLength="95" x="495" y="506.0176">Document type</text><path d="M442,598.3359 L452,598.3359 C467,598.3359 467,500.2891 482,500.2891 L492,500.2891 " fill="none" style="stroke:#181818;stroke-width:1.0;"/><text fill="#000000" font-family="sans-serif" font-size="14" lengthAdjust="spacing" textLength="106" x="495" y="525.627">Document status</text><path d="M442,598.3359 L452,598.3359 C467,598.3359 467,519.8984 482,519.8984 L492,519.8984 " fill="none" style="stroke:#181818;stroke-width:1.0;"/><text fill="#000000" font-family="sans-serif" font-size="14" lengthAdjust="spacing" textLength="41" x="495" y="545.2363">Period</text><path d="M442,598.3359 L452,598.3359 C467,598.3359 467,539.5078 482,539.5078 L492,539.5078 " fill="none" style="stroke:#181818;stroke-width:1.0;"/><text fill="#000000" font-family="sans-serif" font-size="14" lengthAdjust="spacing" textLength="133" x="495" y="564.8457">Report date and time</text><path d="M442,598.3359 L452,598.3359 C467,598.3359 467,559.1172 482,559.1172 L492,559.1172 " fill="none" style="stroke:#181818;stroke-width:1.0;"/><text fill="#000000" font-family="sans-serif" font-size="14" lengthAdjust="spacing" textLength="90" x="495" y="584.4551">Document title</text><path d="M442,598.3359 L452,598.3359 C467,598.3359 467,578.7266 482,578.7266 L492,578.7266 " fill="none" style="stroke:#181818;stroke-width:1.0;"/><text fill="#000000" font-family="sans-serif" font-size="14" lengthAdjust="spacing" textLength="67" x="495" y="604.0645">Event type</text><path d="M442,598.3359 L452,598.3359 C467,598.3359 467,598.3359 482,598.3359 L492,598.3359 " fill="none" style="stroke:#181818;stroke-width:1.0;"/><text fill="#000000" font-family="sans-serif" font-size="14" lengthAdjust="spacing" textLength="57" x="495" y="623.6738">Specialty</text><path d="M442,598.3359 L452,598.3359 C467,598.3359 467,617.9453 482,617.9453 L492,617.9453 " fill="none" style="stroke:#181818;stroke-width:1.0;"/><text fill="#000000" font-family="sans-serif" font-size="14" lengthAdjust="spacing" textLength="108" x="495" y="643.2832">Report custodian</text><path d="M442,598.3359 L452,598.3359 C467,598.3359 467,637.5547 482,637.5547 L492,637.5547 " fill="none" style="stroke:#181818;stroke-width:1.0;"/><text fill="#000000" font-family="sans-serif" font-size="14" lengthAdjust="spacing" textLength="108" x="495" y="662.8926">Document format</text><path d="M442,598.3359 L452,598.3359 C467,598.3359 467,657.1641 482,657.1641 L492,657.1641 " fill="none" style="stroke:#181818;stroke-width:1.0;"/><text fill="#000000" font-family="sans-serif" font-size="14" lengthAdjust="spacing" textLength="89" x="495" y="682.502">Confidentiality</text><path d="M442,598.3359 L452,598.3359 C467,598.3359 467,676.7734 482,676.7734 L492,676.7734 " fill="none" style="stroke:#181818;stroke-width:1.0;"/><text fill="#000000" font-family="sans-serif" font-size="14" lengthAdjust="spacing" textLength="64" x="495" y="702.1113">Language</text><path d="M442,598.3359 L452,598.3359 C467,598.3359 467,696.3828 482,696.3828 L492,696.3828 " fill="none" style="stroke:#181818;stroke-width:1.0;"/><text fill="#000000" font-family="sans-serif" font-size="14" lengthAdjust="spacing" textLength="48" x="495" y="721.7207">Version</text><path d="M442,598.3359 L452,598.3359 C467,598.3359 467,715.9922 482,715.9922 L492,715.9922 " fill="none" style="stroke:#181818;stroke-width:1.0;"/><path d="M245,367.8984 L255,367.8984 C270,367.8984 270,598.3359 285,598.3359 L295,598.3359 " fill="none" style="stroke:#181818;stroke-width:1.0;"/><!--SRC=[xLB1RXen4BtxA-OMG4f2AAcgFT42QPA2X5Z2ePTgs1t0xQwziiUa_7t7xAvKQCuzvMO_ltcUUVD6dj5ngKrUOgNyBsqgT5W2sogu0b9s8UFWQ49RRJHhQwvL3nwjhpHZ0HFjipsw7S6IAkiO7WbpSghNWpHiVbB6yRYa0fbogCXvQoAoSBGbvmIJWeBt0jWjUI_wM4H20slZWqEJ4Q2HUZoMP5ZGhNKbncuYzyamcLoq76MwqiA8wEV0U-lyNbTow_rexlLv8ksiT4ad7ZE92OrO99u0UeCwevtCZ28aV-Zihvf_NjxwQMApSEg_9COS6HjA2pzDBW0-LdG1nKw3hy45EMtp-jpOBwgrLLp_UQQckMYmwU5SFgt4EJ7yU2QM1SysrsWkX6hpQt1ipLRdSMWiT5i_GxCBk6l4rxBrQDJj5OW9tunzBIYNn3ZoDhYCcccclyLpsJwSea6oyxQPEZolclSAhcuLZ6JRRMBLw3t0xm7-Fm4-3zwYGCClynaSwcUukndq1yER3vtLFi03RU3k7WRzPDXF-lSmdguWFdTLv-jYTXX0dNt8jMUdDo5kegkUyO2m32OEdq2yTLRpBgJJ5eIfEMXdJHn3FQ_dDKdYp6bb-KJ-EBp-eXbISj8OhETAae-XO2dDn0opI-1bzN3zIRL39f1vDRRoWJicCFx-1m00]--></g></svg>