<?xml version="1.0" encoding="us-ascii" standalone="no"?><svg xmlns="http://www.w3.org/2000/svg" xmlns:xlink="http://www.w3.org/1999/xlink" contentStyleType="text/css" height="1079px" preserveAspectRatio="none" style="width:888px;height:1079px;background:#FFFFFF;" version="1.1" viewBox="0 0 888 1079" width="888px" zoomAndPan="magnify"><defs/><g><rect fill="#F1F1F1" height="37.6094" rx="12.5" ry="12.5" style="stroke:#181818;stroke-width:1.5;" width="220" x="10" y="520.0391"/><text fill="#000000" font-family="sans-serif" font-size="14" lengthAdjust="spacing" textLength="200" x="20" y="544.5723">Hospital Discharge Report body</text><rect fill="#90EE90" height="37.6094" rx="12.5" ry="12.5" style="stroke:#181818;stroke-width:1.5;" width="143" x="280" y="50.0234"/><text fill="#000000" font-family="sans-serif" font-size="14" lengthAdjust="spacing" textLength="119" x="290" y="74.5566">Advance directives</text><text fill="#000000" font-family="sans-serif" font-size="14" lengthAdjust="spacing" textLength="59" x="476" y="25.5332">Living will</text><path d="M423,68.8281 L433,68.8281 C448,68.8281 448,19.8047 463,19.8047 L473,19.8047 " fill="none" style="stroke:#181818;stroke-width:1.0;"/><text fill="#000000" font-family="sans-serif" font-size="14" lengthAdjust="spacing" textLength="88" x="476" y="45.1426">Date and time</text><path d="M423,68.8281 L433,68.8281 C448,68.8281 448,39.4141 463,39.4141 L473,39.4141 " fill="none" style="stroke:#181818;stroke-width:1.0;"/><text fill="#000000" font-family="sans-serif" font-size="14" lengthAdjust="spacing" textLength="32" x="476" y="64.752">Type</text><path d="M423,68.8281 L433,68.8281 C448,68.8281 448,59.0234 463,59.0234 L473,59.0234 " fill="none" style="stroke:#181818;stroke-width:1.0;"/><text fill="#000000" font-family="sans-serif" font-size="14" lengthAdjust="spacing" textLength="60" x="476" y="84.3613">Comment</text><path d="M423,68.8281 L433,68.8281 C448,68.8281 448,78.6328 463,78.6328 L473,78.6328 " fill="none" style="stroke:#181818;stroke-width:1.0;"/><text fill="#000000" font-family="sans-serif" font-size="14" lengthAdjust="spacing" textLength="117" x="476" y="103.9707">Related conditions</text><path d="M423,68.8281 L433,68.8281 C448,68.8281 448,98.2422 463,98.2422 L473,98.2422 " fill="none" style="stroke:#181818;stroke-width:1.0;"/><text fill="#000000" font-family="sans-serif" font-size="14" lengthAdjust="spacing" textLength="125" x="476" y="123.5801">Living will document</text><path d="M423,68.8281 L433,68.8281 C448,68.8281 448,117.8516 463,117.8516 L473,117.8516 " fill="none" style="stroke:#181818;stroke-width:1.0;"/><path d="M230,538.8438 L240,538.8438 C255,538.8438 255,68.8281 270,68.8281 L280,68.8281 " fill="none" style="stroke:#181818;stroke-width:1.0;"/><rect fill="#90EE90" height="37.6094" rx="12.5" ry="12.5" style="stroke:#181818;stroke-width:1.5;" width="109" x="280" y="138.2656"/><text fill="#000000" font-family="sans-serif" font-size="14" lengthAdjust="spacing" textLength="85" x="290" y="162.7988">Alerts section</text><text fill="#000000" font-family="sans-serif" font-size="14" lengthAdjust="spacing" textLength="107" x="442" y="143.1895">Section narrative</text><path d="M389,157.0703 L399,157.0703 C414,157.0703 414,137.4609 429,137.4609 L439,137.4609 " fill="none" style="stroke:#181818;stroke-width:1.0;"/><text fill="#000000" font-family="sans-serif" font-size="14" lengthAdjust="spacing" textLength="145" x="442" y="162.7988">Allergy and Intolerance</text><path d="M389,157.0703 L399,157.0703 C414,157.0703 414,157.0703 429,157.0703 L439,157.0703 " fill="none" style="stroke:#181818;stroke-width:1.0;"/><text fill="#000000" font-family="sans-serif" font-size="14" lengthAdjust="spacing" textLength="87" x="442" y="182.4082">Medical alerts</text><path d="M389,157.0703 L399,157.0703 C414,157.0703 414,176.6797 429,176.6797 L439,176.6797 " fill="none" style="stroke:#181818;stroke-width:1.0;"/><path d="M230,538.8438 L240,538.8438 C255,538.8438 255,157.0703 270,157.0703 L280,157.0703 " fill="none" style="stroke:#181818;stroke-width:1.0;"/><rect fill="#90EE90" height="37.6094" rx="12.5" ry="12.5" style="stroke:#181818;stroke-width:1.5;" width="212" x="280" y="295.1406"/><text fill="#000000" font-family="sans-serif" font-size="14" lengthAdjust="spacing" textLength="188" x="290" y="319.6738">Encounter information section</text><text fill="#000000" font-family="sans-serif" font-size="14" lengthAdjust="spacing" textLength="107" x="545" y="202.0176">Section narrative</text><path d="M492,313.9453 L502,313.9453 C517,313.9453 517,196.2891 532,196.2891 L542,196.2891 " fill="none" style="stroke:#181818;stroke-width:1.0;"/><text fill="#000000" font-family="sans-serif" font-size="14" lengthAdjust="spacing" textLength="44" x="545" y="221.627">Priority</text><path d="M492,313.9453 L502,313.9453 C517,313.9453 517,215.8984 532,215.8984 L542,215.8984 " fill="none" style="stroke:#181818;stroke-width:1.0;"/><text fill="#000000" font-family="sans-serif" font-size="14" lengthAdjust="spacing" textLength="218" x="545" y="241.2363">Admitting facility (Service provider)</text><path d="M492,313.9453 L502,313.9453 C517,313.9453 517,235.5078 532,235.5078 L542,235.5078 " fill="none" style="stroke:#181818;stroke-width:1.0;"/><text fill="#000000" font-family="sans-serif" font-size="14" lengthAdjust="spacing" textLength="151" x="545" y="260.8457">Actual encounter period</text><path d="M492,313.9453 L502,313.9453 C517,313.9453 517,255.1172 532,255.1172 L542,255.1172 " fill="none" style="stroke:#181818;stroke-width:1.0;"/><text fill="#000000" font-family="sans-serif" font-size="14" lengthAdjust="spacing" textLength="138" x="545" y="319.6738">Admission information</text><text fill="#000000" font-family="sans-serif" font-size="14" lengthAdjust="spacing" textLength="52" x="736" y="280.4551">Admitter</text><path d="M683,313.9453 L693,313.9453 C708,313.9453 708,274.7266 723,274.7266 L733,274.7266 " fill="none" style="stroke:#181818;stroke-width:1.0;"/><text fill="#000000" font-family="sans-serif" font-size="14" lengthAdjust="spacing" textLength="84" x="736" y="300.0645">Admit Source</text><path d="M683,313.9453 L693,313.9453 C708,313.9453 708,294.3359 723,294.3359 L733,294.3359 " fill="none" style="stroke:#181818;stroke-width:1.0;"/><text fill="#000000" font-family="sans-serif" font-size="14" lengthAdjust="spacing" textLength="140" x="736" y="319.6738">Referring professional</text><path d="M683,313.9453 L693,313.9453 C708,313.9453 708,313.9453 723,313.9453 L733,313.9453 " fill="none" style="stroke:#181818;stroke-width:1.0;"/><text fill="#000000" font-family="sans-serif" font-size="14" lengthAdjust="spacing" textLength="117" x="736" y="339.2832">Admission Reason</text><path d="M683,313.9453 L693,313.9453 C708,313.9453 708,333.5547 723,333.5547 L733,333.5547 " fill="none" style="stroke:#181818;stroke-width:1.0;"/><text fill="#000000" font-family="sans-serif" font-size="14" lengthAdjust="spacing" textLength="140" x="736" y="358.8926">Admission legal status</text><path d="M683,313.9453 L693,313.9453 C708,313.9453 708,353.1641 723,353.1641 L733,353.1641 " fill="none" style="stroke:#181818;stroke-width:1.0;"/><path d="M492,313.9453 L502,313.9453 C517,313.9453 517,313.9453 532,313.9453 L542,313.9453 " fill="none" style="stroke:#181818;stroke-width:1.0;"/><text fill="#000000" font-family="sans-serif" font-size="14" lengthAdjust="spacing" textLength="138" x="545" y="388.3066">Discharge information</text><text fill="#000000" font-family="sans-serif" font-size="14" lengthAdjust="spacing" textLength="102" x="736" y="378.502">Destination type</text><path d="M683,382.5781 L693,382.5781 C708,382.5781 708,372.7734 723,372.7734 L733,372.7734 " fill="none" style="stroke:#181818;stroke-width:1.0;"/><text fill="#000000" font-family="sans-serif" font-size="14" lengthAdjust="spacing" textLength="124" x="736" y="398.1113">Destination location</text><path d="M683,382.5781 L693,382.5781 C708,382.5781 708,392.3828 723,392.3828 L733,392.3828 " fill="none" style="stroke:#181818;stroke-width:1.0;"/><path d="M492,313.9453 L502,313.9453 C517,313.9453 517,382.5781 532,382.5781 L542,382.5781 " fill="none" style="stroke:#181818;stroke-width:1.0;"/><text fill="#000000" font-family="sans-serif" font-size="14" lengthAdjust="spacing" textLength="54" x="545" y="427.5254">Location</text><text fill="#000000" font-family="sans-serif" font-size="14" lengthAdjust="spacing" textLength="41" x="652" y="417.7207">Period</text><path d="M599,421.7969 L609,421.7969 C624,421.7969 624,411.9922 639,411.9922 L649,411.9922 " fill="none" style="stroke:#181818;stroke-width:1.0;"/><text fill="#000000" font-family="sans-serif" font-size="14" lengthAdjust="spacing" textLength="109" x="652" y="437.3301">Organization part</text><path d="M599,421.7969 L609,421.7969 C624,421.7969 624,431.6016 639,431.6016 L649,431.6016 " fill="none" style="stroke:#181818;stroke-width:1.0;"/><path d="M492,313.9453 L502,313.9453 C517,313.9453 517,421.7969 532,421.7969 L542,421.7969 " fill="none" style="stroke:#181818;stroke-width:1.0;"/><path d="M230,538.8438 L240,538.8438 C255,538.8438 255,313.9453 270,313.9453 L280,313.9453 " fill="none" style="stroke:#181818;stroke-width:1.0;"/><rect fill="#F1F1F1" height="37.6094" rx="12.5" ry="12.5" style="stroke:#181818;stroke-width:1.5;" width="153" x="280" y="452.0156"/><text fill="#000000" font-family="sans-serif" font-size="14" lengthAdjust="spacing" textLength="133" x="290" y="476.5488">Admission evaluation</text><text fill="#000000" font-family="sans-serif" font-size="14" lengthAdjust="spacing" textLength="107" x="486" y="456.9395">Section narrative</text><path d="M433,470.8203 L443,470.8203 C458,470.8203 458,451.2109 473,451.2109 L483,451.2109 " fill="none" style="stroke:#181818;stroke-width:1.0;"/><text fill="#000000" font-family="sans-serif" font-size="14" lengthAdjust="spacing" textLength="112" x="486" y="476.5488">Objective findings</text><path d="M433,470.8203 L443,470.8203 C458,470.8203 458,470.8203 473,470.8203 L483,470.8203 " fill="none" style="stroke:#181818;stroke-width:1.0;"/><text fill="#000000" font-family="sans-serif" font-size="14" lengthAdjust="spacing" textLength="108" x="486" y="496.1582">Functional status</text><path d="M433,470.8203 L443,470.8203 C458,470.8203 458,490.4297 473,490.4297 L483,490.4297 " fill="none" style="stroke:#181818;stroke-width:1.0;"/><path d="M230,538.8438 L240,538.8438 C255,538.8438 255,470.8203 270,470.8203 L280,470.8203 " fill="none" style="stroke:#181818;stroke-width:1.0;"/><rect fill="#F1F1F1" height="37.6094" rx="12.5" ry="12.5" style="stroke:#181818;stroke-width:1.5;" width="110" x="280" y="530.4531"/><text fill="#000000" font-family="sans-serif" font-size="14" lengthAdjust="spacing" textLength="90" x="290" y="554.9863">Patient history</text><text fill="#000000" font-family="sans-serif" font-size="14" lengthAdjust="spacing" textLength="107" x="443" y="515.7676">Section narrative</text><path d="M390,549.2578 L400,549.2578 C415,549.2578 415,510.0391 430,510.0391 L440,510.0391 " fill="none" style="stroke:#181818;stroke-width:1.0;"/><text fill="#000000" font-family="sans-serif" font-size="14" lengthAdjust="spacing" textLength="94" x="443" y="535.377">Medical history</text><path d="M390,549.2578 L400,549.2578 C415,549.2578 415,529.6484 430,529.6484 L440,529.6484 " fill="none" style="stroke:#181818;stroke-width:1.0;"/><text fill="#000000" font-family="sans-serif" font-size="14" lengthAdjust="spacing" textLength="87" x="443" y="554.9863">Family history</text><path d="M390,549.2578 L400,549.2578 C415,549.2578 415,549.2578 430,549.2578 L440,549.2578 " fill="none" style="stroke:#181818;stroke-width:1.0;"/><text fill="#000000" font-family="sans-serif" font-size="14" lengthAdjust="spacing" textLength="183" x="443" y="574.5957">Social determinants of health</text><path d="M390,549.2578 L400,549.2578 C415,549.2578 415,568.8672 430,568.8672 L440,568.8672 " fill="none" style="stroke:#181818;stroke-width:1.0;"/><text fill="#000000" font-family="sans-serif" font-size="14" lengthAdjust="spacing" textLength="116" x="443" y="594.2051">Use of substances</text><path d="M390,549.2578 L400,549.2578 C415,549.2578 415,588.4766 430,588.4766 L440,588.4766 " fill="none" style="stroke:#181818;stroke-width:1.0;"/><path d="M230,538.8438 L240,538.8438 C255,538.8438 255,549.2578 270,549.2578 L280,549.2578 " fill="none" style="stroke:#181818;stroke-width:1.0;"/><rect fill="#90EE90" height="37.6094" rx="12.5" ry="12.5" style="stroke:#181818;stroke-width:1.5;" width="274" x="280" y="648.1094"/><text fill="#000000" font-family="sans-serif" font-size="14" lengthAdjust="spacing" textLength="250" x="290" y="672.6426">Course of hospitalisation (Hospital stay)</text><text fill="#000000" font-family="sans-serif" font-size="14" lengthAdjust="spacing" textLength="107" x="607" y="613.8145">Section narrative</text><path d="M554,666.9141 L564,666.9141 C579,666.9141 579,608.0859 594,608.0859 L604,608.0859 " fill="none" style="stroke:#181818;stroke-width:1.0;"/><text fill="#000000" font-family="sans-serif" font-size="14" lengthAdjust="spacing" textLength="127" x="607" y="633.4238">Diagnostic summary</text><path d="M554,666.9141 L564,666.9141 C579,666.9141 579,627.6953 594,627.6953 L604,627.6953 " fill="none" style="stroke:#181818;stroke-width:1.0;"/><text fill="#000000" font-family="sans-serif" font-size="14" lengthAdjust="spacing" textLength="141" x="607" y="653.0332">Significant procedures</text><path d="M554,666.9141 L564,666.9141 C579,666.9141 579,647.3047 594,647.3047 L604,647.3047 " fill="none" style="stroke:#181818;stroke-width:1.0;"/><text fill="#000000" font-family="sans-serif" font-size="14" lengthAdjust="spacing" textLength="184" x="607" y="672.6426">Medical devices and implants</text><path d="M554,666.9141 L564,666.9141 C579,666.9141 579,666.9141 594,666.9141 L604,666.9141 " fill="none" style="stroke:#181818;stroke-width:1.0;"/><text fill="#000000" font-family="sans-serif" font-size="14" lengthAdjust="spacing" textLength="112" x="607" y="692.252">Pharmacotherapy</text><path d="M554,666.9141 L564,666.9141 C579,666.9141 579,686.5234 594,686.5234 L604,686.5234 " fill="none" style="stroke:#181818;stroke-width:1.0;"/><text fill="#000000" font-family="sans-serif" font-size="14" lengthAdjust="spacing" textLength="197" x="607" y="711.8613">Significant Observation Results</text><path d="M554,666.9141 L564,666.9141 C579,666.9141 579,706.1328 594,706.1328 L604,706.1328 " fill="none" style="stroke:#181818;stroke-width:1.0;"/><text fill="#000000" font-family="sans-serif" font-size="14" lengthAdjust="spacing" textLength="61" x="607" y="731.4707">Synthesis</text><path d="M554,666.9141 L564,666.9141 C579,666.9141 579,725.7422 594,725.7422 L604,725.7422 " fill="none" style="stroke:#181818;stroke-width:1.0;"/><path d="M230,538.8438 L240,538.8438 C255,538.8438 255,666.9141 270,666.9141 L280,666.9141 " fill="none" style="stroke:#181818;stroke-width:1.0;"/><rect fill="#90EE90" height="37.6094" rx="12.5" ry="12.5" style="stroke:#181818;stroke-width:1.5;" width="133" x="280" y="814.7891"/><text fill="#000000" font-family="sans-serif" font-size="14" lengthAdjust="spacing" textLength="109" x="290" y="839.3223">Discharge details</text><text fill="#000000" font-family="sans-serif" font-size="14" lengthAdjust="spacing" textLength="107" x="466" y="780.4941">Section narrative</text><path d="M413,833.5938 L423,833.5938 C438,833.5938 438,774.7656 453,774.7656 L463,774.7656 " fill="none" style="stroke:#181818;stroke-width:1.0;"/><text fill="#000000" font-family="sans-serif" font-size="14" lengthAdjust="spacing" textLength="112" x="466" y="800.1035">Objective findings</text><text fill="#000000" font-family="sans-serif" font-size="14" lengthAdjust="spacing" textLength="88" x="631" y="751.0801">Date and time</text><path d="M578,794.375 L588,794.375 C603,794.375 603,745.3516 618,745.3516 L628,745.3516 " fill="none" style="stroke:#181818;stroke-width:1.0;"/><text fill="#000000" font-family="sans-serif" font-size="14" lengthAdjust="spacing" textLength="63" x="631" y="770.6895">Performer</text><path d="M578,794.375 L588,794.375 C603,794.375 603,764.9609 618,764.9609 L628,764.9609 " fill="none" style="stroke:#181818;stroke-width:1.0;"/><text fill="#000000" font-family="sans-serif" font-size="14" lengthAdjust="spacing" textLength="107" x="631" y="790.2988">Section narrative</text><path d="M578,794.375 L588,794.375 C603,794.375 603,784.5703 618,784.5703 L628,784.5703 " fill="none" style="stroke:#181818;stroke-width:1.0;"/><text fill="#000000" font-family="sans-serif" font-size="14" lengthAdjust="spacing" textLength="181" x="631" y="809.9082">Anthropometric observations</text><path d="M578,794.375 L588,794.375 C603,794.375 603,804.1797 618,804.1797 L628,804.1797 " fill="none" style="stroke:#181818;stroke-width:1.0;"/><text fill="#000000" font-family="sans-serif" font-size="14" lengthAdjust="spacing" textLength="64" x="631" y="829.5176">Vital signs</text><path d="M578,794.375 L588,794.375 C603,794.375 603,823.7891 618,823.7891 L628,823.7891 " fill="none" style="stroke:#181818;stroke-width:1.0;"/><text fill="#000000" font-family="sans-serif" font-size="14" lengthAdjust="spacing" textLength="131" x="631" y="849.127">Physical examination</text><path d="M578,794.375 L588,794.375 C603,794.375 603,843.3984 618,843.3984 L628,843.3984 " fill="none" style="stroke:#181818;stroke-width:1.0;"/><path d="M413,833.5938 L423,833.5938 C438,833.5938 438,794.375 453,794.375 L463,794.375 " fill="none" style="stroke:#181818;stroke-width:1.0;"/><text fill="#000000" font-family="sans-serif" font-size="14" lengthAdjust="spacing" textLength="108" x="466" y="898.1504">Functional status</text><text fill="#000000" font-family="sans-serif" font-size="14" lengthAdjust="spacing" textLength="88" x="627" y="868.7363">Date and time</text><path d="M574,892.4219 L584,892.4219 C599,892.4219 599,863.0078 614,863.0078 L624,863.0078 " fill="none" style="stroke:#181818;stroke-width:1.0;"/><text fill="#000000" font-family="sans-serif" font-size="14" lengthAdjust="spacing" textLength="63" x="627" y="888.3457">Performer</text><path d="M574,892.4219 L584,892.4219 C599,892.4219 599,882.6172 614,882.6172 L624,882.6172 " fill="none" style="stroke:#181818;stroke-width:1.0;"/><text fill="#000000" font-family="sans-serif" font-size="14" lengthAdjust="spacing" textLength="107" x="627" y="907.9551">Section narrative</text><path d="M574,892.4219 L584,892.4219 C599,892.4219 599,902.2266 614,902.2266 L624,902.2266 " fill="none" style="stroke:#181818;stroke-width:1.0;"/><text fill="#000000" font-family="sans-serif" font-size="14" lengthAdjust="spacing" textLength="187" x="627" y="927.5645">Functional status assessment</text><path d="M574,892.4219 L584,892.4219 C599,892.4219 599,921.8359 614,921.8359 L624,921.8359 " fill="none" style="stroke:#181818;stroke-width:1.0;"/><path d="M413,833.5938 L423,833.5938 C438,833.5938 438,892.4219 453,892.4219 L463,892.4219 " fill="none" style="stroke:#181818;stroke-width:1.0;"/><path d="M230,538.8438 L240,538.8438 C255,538.8438 255,833.5938 270,833.5938 L280,833.5938 " fill="none" style="stroke:#181818;stroke-width:1.0;"/><rect fill="#90EE90" height="37.6094" rx="12.5" ry="12.5" style="stroke:#181818;stroke-width:1.5;" width="153" x="280" y="941.6406"/><text fill="#000000" font-family="sans-serif" font-size="14" lengthAdjust="spacing" textLength="129" x="290" y="966.1738">Medication summary</text><path d="M230,538.8438 L240,538.8438 C255,538.8438 255,960.4453 270,960.4453 L280,960.4453 " fill="none" style="stroke:#181818;stroke-width:1.0;"/><rect fill="#90EE90" height="37.6094" rx="12.5" ry="12.5" style="stroke:#181818;stroke-width:1.5;" width="86" x="280" y="1009.6641"/><text fill="#000000" font-family="sans-serif" font-size="14" lengthAdjust="spacing" textLength="62" x="290" y="1034.1973">Care plan</text><text fill="#000000" font-family="sans-serif" font-size="14" lengthAdjust="spacing" textLength="27" x="419" y="1004.7832">Title</text><path d="M366,1028.4688 L376,1028.4688 C391,1028.4688 391,999.0547 406,999.0547 L416,999.0547 " fill="none" style="stroke:#181818;stroke-width:1.0;"/><text fill="#000000" font-family="sans-serif" font-size="14" lengthAdjust="spacing" textLength="67" x="419" y="1024.3926">Addresses</text><path d="M366,1028.4688 L376,1028.4688 C391,1028.4688 391,1018.6641 406,1018.6641 L416,1018.6641 " fill="none" style="stroke:#181818;stroke-width:1.0;"/><text fill="#000000" font-family="sans-serif" font-size="14" lengthAdjust="spacing" textLength="135" x="419" y="1044.002">Care plan description</text><path d="M366,1028.4688 L376,1028.4688 C391,1028.4688 391,1038.2734 406,1038.2734 L416,1038.2734 " fill="none" style="stroke:#181818;stroke-width:1.0;"/><text fill="#000000" font-family="sans-serif" font-size="14" lengthAdjust="spacing" textLength="152" x="419" y="1063.6113">Other recommendations</text><path d="M366,1028.4688 L376,1028.4688 C391,1028.4688 391,1057.8828 406,1057.8828 L416,1057.8828 " fill="none" style="stroke:#181818;stroke-width:1.0;"/><path d="M230,538.8438 L240,538.8438 C255,538.8438 255,1028.4688 270,1028.4688 L280,1028.4688 " fill="none" style="stroke:#181818;stroke-width:1.0;"/><!--SRC=[fLNVRzis47xNNt6Fje5aQPOEWn4KJUraMn4ZXktaeIy5BPwbQobI82bjsj3_VKTIifqVBLhKJ-RfxlXzTzyTtpelhAz8oqhKcVjCkXPMLE1DtLW5Qs-Rt3SMvxWZJPwCFiakdUyKlidwg3c98eJybm7_JWkBgFj3-BqJ-UV2caRBcL76WgAYzD4fkdp9lcINl_GP9m1_6bUJ5mhcvF9Is09XXRMn7hP6Tjba0bUo5Jf7a6GnzzIYWylBcF0DPvXCFi8jjQGB-9kKIeQvy0X2I_1KOJ9jkhh_DpDLXTgdmmeL-qh8ZPQHhdkM4gJ9cpu2hXHQxy0594O_1RBkpLfOAmBKPBvI75Lq4T5VsXi-1KRfum8bvSnVnCpXZckTS_ayMY2zCxOICUUFNRcqP2pvhWSWA_8-4Dg9d1JRORH6snANjRQc9ObstBjo-naDxZ7KoAda8OzpuReZPE7J_WwqnqTOcyOceh7MExGseE0xTnWJ2NNadrAlKBX7MPDPOS6uMBw-wNjqKCnpD7Dqp3TLplUjVs9M9jz7SCEFJg5-UzPykBE5qFHl2kDvIKhO8yDMgEOerLTQShVzbFGBF5gIoz3Jk6bqz3zc1qiEPCb1ISuRstqpyQ2WHxuteYBLFOatER6VH6uJ3xFGh6IpWnA5ycLokNSOJAxPCXRMQ0GpuoucUzbFAxbKZD5-VDcz6t-dECC6qOOxaVD5LINs-AZGj6CkJ9mbagFaJUGUavGOLElYB55Lgq2YbpnheHAvyIMFL_r2ohkjOyqdu2jqZHeYrvtc84UHx45LN2T1odqdgPVR-z8oIl8AYjrFouivW_mPc3MrgT1RhfOvC1YoFwJgCyt1iYmx5qk5_uYg5_lNbVQp29_b1E4Sp_QmC5FVqWPBlNvKJvW9opk8s_Yqp1loQjYVKh8Et225GuX4brkg3mplGlE1tucuusLVgRVyTtZoicMGpFtY5bgqSNnVdPwVdL-S_ZhQb0tSu1PUlORpi-d5sVJiDSokDn0-ZxFH7ylRzXnSt6Zy63dkoBO95uopzw8LiE9zoVMRGZYDDeinhAy78-_qbgpHiIhl7nR9YHy_lwwDZyw_NPoy2nkJ6ymK7XOPFy62DHgVWw2dATnlRav-psw5BXfHy4MvosPXIzjk2hCF_mC0]--></g></svg>